<svg xmlns="http://www.w3.org/2000/svg" width="16.791" height="15.109" viewBox="0 0 16.791 15.109"><g transform="translate(0.75 0.75)"><path d="M9,0,5.6,2.731a1.768,1.768,0,0,1-2.183,0L0,0" transform="translate(3.144 4.422)" fill="none" stroke="#14b0b6" stroke-width="1.5"></path><path d="M3.886,0h7.5a3.941,3.941,0,0,1,2.847,1.264,3.989,3.989,0,0,1,1.054,2.945V9.4a3.989,3.989,0,0,1-1.054,2.945,3.941,3.941,0,0,1-2.847,1.264h-7.5A3.95,3.95,0,0,1,0,9.4V4.209A3.95,3.95,0,0,1,3.886,0Z" transform="translate(0 0)" fill="none" stroke="#14b0b6" stroke-width="1.5"></path></g></svg>