<svg xmlns="http://www.w3.org/2000/svg" width="19.876" height="19.699" viewBox="0 0 19.876 19.699"><g transform="translate(-1.746 -1.748)"><g transform="translate(2.5 2.5)"><path d="M.469,2.273C.772,1.77,2.442-.054,3.631,0A1.572,1.572,0,0,1,4.558.5h0a16.165,16.165,0,0,1,2.362,3.2c.233,1.119-1.1,1.764-.693,2.892a9.452,9.452,0,0,0,5.38,5.377c1.127.409,1.772-.924,2.891-.692a16.147,16.147,0,0,1,3.2,2.363h0a1.569,1.569,0,0,1,.495.926c.044,1.254-1.893,2.946-2.271,3.162-.891.638-2.053.626-3.47-.032C8.5,16.044,2.177,9.844.5,5.741-.14,4.332-.183,3.162.469,2.273Z" transform="translate(0 0)" fill="none" stroke="#14b0b6" stroke-width="1.5"></path><path d="M0,0A7.631,7.631,0,0,1,6.741,6.733" transform="translate(11.552 0.239)" fill="#14b0b6" stroke="#14b0b6" stroke-width="1.5"></path><path d="M0,0A4.237,4.237,0,0,1,3.349,3.349" transform="translate(11.552 3.632)" fill="none" stroke="#14b0b6" stroke-width="1.5"></path></g></g></svg>